<?xml version="1.0" encoding="iso-8859-1"?>
<!-- Generator: Adobe Illustrator 22.0.0, SVG Export Plug-In . SVG Version: 6.00 Build 0)  -->
<svg version="1.1" xmlns="http://www.w3.org/2000/svg" xmlns:xlink="http://www.w3.org/1999/xlink" x="0px" y="0px"
	 viewBox="0 0 1920 1080" style="enable-background:new 0 0 1920 1080;" xml:space="preserve">
<g id="Layer_1">
	<g>
		<rect style="fill:#252627;" width="1920" height="1080"/>
	</g>
</g>
<g id="Layer_2">
	<g>
		<g>
			<g id="XMLID_1319_">
				<defs>
					
						<rect id="XMLID_1320_" x="419.994" y="-420.006" transform="matrix(6.123234e-17 -1 1 6.123234e-17 419.9942 1499.9941)" width="1080" height="1920.012"/>
				</defs>
				<clipPath id="XMLID_2_">
					<use xlink:href="#XMLID_1320_"  style="overflow:visible;"/>
				</clipPath>
				<path id="XMLID_1327_" style="clip-path:url(#XMLID_2_);fill:#FCBD0B;" d="M-67.447-111.087
					c-142.025-7.16-259.367,84.897-263.464,198.062c-2.639,72.922-36.979,174.176-168.825,279.178
					C-752.857,567.736-673.595,1077.361-93.212,875.05C391.952,705.93,346.911-90.196-67.447-111.087z"/>
				<path id="XMLID_1321_" style="clip-path:url(#XMLID_2_);fill:#FCBD0B;" d="M1949.918-47.385
					c-136.306,32.539-206.137,151.293-160.558,258.541c29.371,69.109,41.389,173.547-36.39,308.448
					c-149.321,258.984,147.562,714.959,603.442,364.843C2737.499,591.773,2347.589-142.315,1949.918-47.385z"/>
			</g>
			<g id="XMLID_665_">
				<defs>
					
						<rect id="XMLID_940_" x="419.994" y="-420.006" transform="matrix(6.123234e-17 -1 1 6.123234e-17 419.9942 1499.9941)" width="1080" height="1920.012"/>
				</defs>
				<clipPath id="XMLID_3_">
					<use xlink:href="#XMLID_940_"  style="overflow:visible;"/>
				</clipPath>
				<g id="XMLID_1184_" style="clip-path:url(#XMLID_3_);">
					<path id="XMLID_1186_" style="fill:#FFFFFF;" d="M1884.571,831.443L1884.571,831.443c3.39,3.389,3.39,8.885,0,12.274
						l-45.989,45.989c-3.389,3.389-8.884,3.389-12.273,0l0,0c-3.39-3.389-3.39-8.884,0-12.274l45.989-45.989
						C1875.687,828.054,1881.182,828.054,1884.571,831.443z"/>
					<path id="XMLID_1185_" style="fill:#FFFFFF;" d="M1884.571,889.705L1884.571,889.705c-3.389,3.389-8.884,3.389-12.273,0
						l-45.989-45.989c-3.39-3.389-3.39-8.884,0-12.274l0,0c3.389-3.389,8.884-3.389,12.273,0l45.989,45.989
						C1887.961,880.821,1887.961,886.316,1884.571,889.705z"/>
				</g>
				<g id="XMLID_1187_" style="clip-path:url(#XMLID_3_);">
					<circle id="XMLID_1191_" style="fill:#EC1841;" cx="859.565" cy="1001.552" r="9.066"/>
					<circle id="XMLID_1190_" style="fill:#EC1841;" cx="825.522" cy="967.508" r="9.066"/>
					<circle id="XMLID_1189_" style="fill:#EC1841;" cx="826.753" cy="1000.466" r="9.066"/>
					<circle id="XMLID_1188_" style="fill:#EC1841;" cx="857.863" cy="969.356" r="9.066"/>
				</g>
				<g id="XMLID_1110_" style="clip-path:url(#XMLID_3_);">
					<g id="XMLID_1141_">
						<path id="XMLID_1146_" style="fill:#EC1841;" d="M1023.383,1116.082c2.562,0,4.639,2.077,4.639,4.639
							c0,2.562-2.077,4.639-4.639,4.639s-4.639-2.077-4.639-4.639C1018.744,1118.158,1020.821,1116.082,1023.383,1116.082z"/>
						<path id="XMLID_1145_" style="fill:#EC1841;" d="M1023.383,1071.189c2.562,0,4.639,2.077,4.639,4.639
							s-2.077,4.639-4.639,4.639s-4.639-2.077-4.639-4.639S1020.821,1071.189,1023.383,1071.189z"/>
						<circle id="XMLID_1144_" style="fill:#EC1841;" cx="1023.383" cy="1030.935" r="4.639"/>
						<path id="XMLID_1143_" style="fill:#EC1841;" d="M1023.383,981.403c2.562,0,4.639,2.077,4.639,4.639s-2.077,4.639-4.639,4.639
							s-4.639-2.077-4.639-4.639S1020.821,981.403,1023.383,981.403z"/>
						<circle id="XMLID_1142_" style="fill:#EC1841;" cx="1023.383" cy="941.15" r="4.639"/>
					</g>
					<g id="XMLID_1135_">
						<path id="XMLID_1140_" style="fill:#EC1841;" d="M1057.496,1116.082c2.562,0,4.639,2.077,4.639,4.639
							c0,2.562-2.077,4.639-4.639,4.639s-4.639-2.077-4.639-4.639C1052.856,1118.158,1054.934,1116.082,1057.496,1116.082z"/>
						<path id="XMLID_1139_" style="fill:#EC1841;" d="M1057.496,1071.189c2.562,0,4.639,2.077,4.639,4.639
							s-2.077,4.639-4.639,4.639s-4.639-2.077-4.639-4.639S1054.934,1071.189,1057.496,1071.189z"/>
						<circle id="XMLID_1138_" style="fill:#EC1841;" cx="1057.496" cy="1030.935" r="4.639"/>
						<path id="XMLID_1137_" style="fill:#EC1841;" d="M1057.496,981.403c2.562,0,4.639,2.077,4.639,4.639s-2.077,4.639-4.639,4.639
							s-4.639-2.077-4.639-4.639S1054.934,981.403,1057.496,981.403z"/>
						<circle id="XMLID_1136_" style="fill:#EC1841;" cx="1057.496" cy="941.15" r="4.639"/>
					</g>
					<g id="XMLID_1129_">
						<path id="XMLID_1134_" style="fill:#EC1841;" d="M1091.609,1116.082c2.563,0,4.639,2.077,4.639,4.639
							c0,2.562-2.077,4.639-4.639,4.639c-2.562,0-4.639-2.077-4.639-4.639C1086.969,1118.158,1089.047,1116.082,1091.609,1116.082z"
							/>
						<path id="XMLID_1133_" style="fill:#EC1841;" d="M1091.609,1071.189c2.563,0,4.639,2.077,4.639,4.639
							s-2.077,4.639-4.639,4.639c-2.562,0-4.639-2.077-4.639-4.639S1089.047,1071.189,1091.609,1071.189z"/>
						<circle id="XMLID_1132_" style="fill:#EC1841;" cx="1091.609" cy="1030.935" r="4.639"/>
						<path id="XMLID_1131_" style="fill:#EC1841;" d="M1091.609,981.403c2.563,0,4.639,2.077,4.639,4.639s-2.077,4.639-4.639,4.639
							c-2.562,0-4.639-2.077-4.639-4.639S1089.047,981.403,1091.609,981.403z"/>
						<circle id="XMLID_1130_" style="fill:#EC1841;" cx="1091.609" cy="941.15" r="4.639"/>
					</g>
					<g id="XMLID_1123_">
						<path id="XMLID_1128_" style="fill:#EC1841;" d="M1125.722,1116.082c2.563,0,4.639,2.077,4.639,4.639
							c0,2.562-2.077,4.639-4.639,4.639c-2.562,0-4.639-2.077-4.639-4.639C1121.083,1118.158,1123.16,1116.082,1125.722,1116.082z"
							/>
						<path id="XMLID_1127_" style="fill:#EC1841;" d="M1125.722,1071.189c2.563,0,4.639,2.077,4.639,4.639
							s-2.077,4.639-4.639,4.639c-2.562,0-4.639-2.077-4.639-4.639S1123.16,1071.189,1125.722,1071.189z"/>
						<path id="XMLID_1126_" style="fill:#EC1841;" d="M1125.722,1026.296c2.563,0,4.639,2.077,4.639,4.639
							s-2.077,4.639-4.639,4.639c-2.562,0-4.639-2.077-4.639-4.639S1123.16,1026.296,1125.722,1026.296z"/>
						<path id="XMLID_1125_" style="fill:#EC1841;" d="M1125.722,981.403c2.563,0,4.639,2.077,4.639,4.639s-2.077,4.639-4.639,4.639
							c-2.562,0-4.639-2.077-4.639-4.639S1123.16,981.403,1125.722,981.403z"/>
						<path id="XMLID_1124_" style="fill:#EC1841;" d="M1125.722,936.51c2.563,0,4.639,2.077,4.639,4.639
							c0,2.563-2.077,4.639-4.639,4.639c-2.562,0-4.639-2.077-4.639-4.639C1121.083,938.588,1123.16,936.51,1125.722,936.51z"/>
					</g>
					<g id="XMLID_1117_">
						<path id="XMLID_1122_" style="fill:#EC1841;" d="M1159.835,1116.082c2.562,0,4.639,2.077,4.639,4.639
							c0,2.562-2.077,4.639-4.639,4.639c-2.563,0-4.639-2.077-4.639-4.639C1155.196,1118.158,1157.273,1116.082,1159.835,1116.082z"
							/>
						<path id="XMLID_1121_" style="fill:#EC1841;" d="M1159.835,1071.189c2.562,0,4.639,2.077,4.639,4.639
							s-2.077,4.639-4.639,4.639c-2.563,0-4.639-2.077-4.639-4.639S1157.273,1071.189,1159.835,1071.189z"/>
						<circle id="XMLID_1120_" style="fill:#EC1841;" cx="1159.835" cy="1030.935" r="4.639"/>
						<path id="XMLID_1119_" style="fill:#EC1841;" d="M1159.835,981.403c2.562,0,4.639,2.077,4.639,4.639s-2.077,4.639-4.639,4.639
							c-2.563,0-4.639-2.077-4.639-4.639S1157.273,981.403,1159.835,981.403z"/>
						<circle id="XMLID_1118_" style="fill:#EC1841;" cx="1159.835" cy="941.15" r="4.639"/>
					</g>
					<g id="XMLID_1111_">
						<path id="XMLID_1116_" style="fill:#EC1841;" d="M1193.948,1116.082c2.562,0,4.639,2.077,4.639,4.639
							c0,2.562-2.077,4.639-4.639,4.639c-2.563,0-4.639-2.077-4.639-4.639C1189.309,1118.158,1191.385,1116.082,1193.948,1116.082z"
							/>
						<path id="XMLID_1115_" style="fill:#EC1841;" d="M1193.948,1071.189c2.562,0,4.639,2.077,4.639,4.639
							s-2.077,4.639-4.639,4.639c-2.563,0-4.639-2.077-4.639-4.639S1191.385,1071.189,1193.948,1071.189z"/>
						<circle id="XMLID_1114_" style="fill:#EC1841;" cx="1193.948" cy="1030.935" r="4.639"/>
						<path id="XMLID_1113_" style="fill:#EC1841;" d="M1193.948,981.403c2.562,0,4.639,2.077,4.639,4.639s-2.077,4.639-4.639,4.639
							c-2.563,0-4.639-2.077-4.639-4.639S1191.385,981.403,1193.948,981.403z"/>
						<circle id="XMLID_1112_" style="fill:#EC1841;" cx="1193.948" cy="941.15" r="4.639"/>
					</g>
				</g>
				<g id="XMLID_1045_" style="clip-path:url(#XMLID_3_);">
					<g id="XMLID_1222_">
						<circle id="XMLID_1227_" style="fill:#FCBD0B;" cx="641.792" cy="151.049" r="4.639"/>
						<circle id="XMLID_1226_" style="fill:#FCBD0B;" cx="641.792" cy="106.157" r="4.639"/>
						<path id="XMLID_1225_" style="fill:#FCBD0B;" d="M641.792,56.625c2.562,0,4.639,2.077,4.639,4.639
							c0,2.562-2.077,4.639-4.639,4.639s-4.639-2.077-4.639-4.639C637.153,58.702,639.23,56.625,641.792,56.625z"/>
						<path id="XMLID_1224_" style="fill:#FCBD0B;" d="M641.792,11.732c2.562,0,4.639,2.077,4.639,4.639
							c0,2.562-2.077,4.639-4.639,4.639s-4.639-2.077-4.639-4.639C637.153,13.809,639.23,11.732,641.792,11.732z"/>
						<circle id="XMLID_1223_" style="fill:#FCBD0B;" cx="641.792" cy="-28.521" r="4.639"/>
					</g>
					<g id="XMLID_1216_">
						<circle id="XMLID_1221_" style="fill:#FCBD0B;" cx="675.905" cy="151.049" r="4.639"/>
						<circle id="XMLID_1220_" style="fill:#FCBD0B;" cx="675.905" cy="106.157" r="4.639"/>
						<path id="XMLID_1219_" style="fill:#FCBD0B;" d="M675.905,56.625c2.562,0,4.639,2.077,4.639,4.639
							c0,2.562-2.077,4.639-4.639,4.639s-4.639-2.077-4.639-4.639C671.266,58.702,673.343,56.625,675.905,56.625z"/>
						<path id="XMLID_1218_" style="fill:#FCBD0B;" d="M675.905,11.732c2.562,0,4.639,2.077,4.639,4.639
							c0,2.562-2.077,4.639-4.639,4.639s-4.639-2.077-4.639-4.639C671.266,13.809,673.343,11.732,675.905,11.732z"/>
						<circle id="XMLID_1217_" style="fill:#FCBD0B;" cx="675.905" cy="-28.521" r="4.639"/>
					</g>
					<g id="XMLID_1210_">
						<circle id="XMLID_1215_" style="fill:#FCBD0B;" cx="710.018" cy="151.049" r="4.639"/>
						<circle id="XMLID_1214_" style="fill:#FCBD0B;" cx="710.018" cy="106.157" r="4.639"/>
						<path id="XMLID_1213_" style="fill:#FCBD0B;" d="M710.018,56.625c2.562,0,4.639,2.077,4.639,4.639
							c0,2.562-2.077,4.639-4.639,4.639c-2.562,0-4.639-2.077-4.639-4.639C705.379,58.702,707.456,56.625,710.018,56.625z"/>
						<path id="XMLID_1212_" style="fill:#FCBD0B;" d="M710.018,11.732c2.562,0,4.639,2.077,4.639,4.639
							c0,2.562-2.077,4.639-4.639,4.639c-2.562,0-4.639-2.077-4.639-4.639C705.379,13.809,707.456,11.732,710.018,11.732z"/>
						<circle id="XMLID_1211_" style="fill:#FCBD0B;" cx="710.018" cy="-28.521" r="4.639"/>
					</g>
					<g id="XMLID_1204_">
						<circle id="XMLID_1209_" style="fill:#FCBD0B;" cx="744.131" cy="151.049" r="4.639"/>
						<circle id="XMLID_1208_" style="fill:#FCBD0B;" cx="744.131" cy="106.157" r="4.639"/>
						<path id="XMLID_1207_" style="fill:#FCBD0B;" d="M744.131,56.625c2.563,0,4.639,2.077,4.639,4.639
							c0,2.562-2.077,4.639-4.639,4.639c-2.562,0-4.639-2.077-4.639-4.639C739.492,58.702,741.569,56.625,744.131,56.625z"/>
						<path id="XMLID_1206_" style="fill:#FCBD0B;" d="M744.131,11.732c2.563,0,4.639,2.077,4.639,4.639
							c0,2.562-2.077,4.639-4.639,4.639c-2.562,0-4.639-2.077-4.639-4.639C739.492,13.809,741.569,11.732,744.131,11.732z"/>
						<circle id="XMLID_1205_" style="fill:#FCBD0B;" cx="744.131" cy="-28.521" r="4.639"/>
					</g>
					<g id="XMLID_1198_">
						<circle id="XMLID_1203_" style="fill:#FCBD0B;" cx="778.244" cy="151.049" r="4.639"/>
						<circle id="XMLID_1202_" style="fill:#FCBD0B;" cx="778.244" cy="106.157" r="4.639"/>
						<path id="XMLID_1201_" style="fill:#FCBD0B;" d="M778.244,56.625c2.563,0,4.639,2.077,4.639,4.639
							c0,2.562-2.077,4.639-4.639,4.639c-2.562,0-4.639-2.077-4.639-4.639C773.605,58.702,775.682,56.625,778.244,56.625z"/>
						<path id="XMLID_1200_" style="fill:#FCBD0B;" d="M778.244,11.732c2.563,0,4.639,2.077,4.639,4.639
							c0,2.562-2.077,4.639-4.639,4.639c-2.562,0-4.639-2.077-4.639-4.639C773.605,13.809,775.682,11.732,778.244,11.732z"/>
						<circle id="XMLID_1199_" style="fill:#FCBD0B;" cx="778.244" cy="-28.521" r="4.639"/>
					</g>
					<g id="XMLID_1192_">
						<path id="XMLID_1197_" style="fill:#FCBD0B;" d="M812.357,146.41c2.562,0,4.639,2.077,4.639,4.639s-2.077,4.639-4.639,4.639
							c-2.563,0-4.639-2.077-4.639-4.639S809.795,146.41,812.357,146.41z"/>
						<path id="XMLID_1196_" style="fill:#FCBD0B;" d="M812.357,101.517c2.562,0,4.639,2.077,4.639,4.639
							c0,2.563-2.077,4.639-4.639,4.639c-2.563,0-4.639-2.077-4.639-4.639C807.718,103.595,809.795,101.517,812.357,101.517z"/>
						<path id="XMLID_1195_" style="fill:#FCBD0B;" d="M812.357,56.625c2.562,0,4.639,2.077,4.639,4.639
							c0,2.562-2.077,4.639-4.639,4.639c-2.563,0-4.639-2.077-4.639-4.639C807.718,58.702,809.795,56.625,812.357,56.625z"/>
						<path id="XMLID_1194_" style="fill:#FCBD0B;" d="M812.357,11.732c2.562,0,4.639,2.077,4.639,4.639
							c0,2.562-2.077,4.639-4.639,4.639c-2.563,0-4.639-2.077-4.639-4.639C807.718,13.809,809.795,11.732,812.357,11.732z"/>
						<path id="XMLID_1193_" style="fill:#FCBD0B;" d="M812.357-33.161c2.562,0,4.639,2.077,4.639,4.639s-2.077,4.639-4.639,4.639
							c-2.563,0-4.639-2.077-4.639-4.639S809.795-33.161,812.357-33.161z"/>
					</g>
				</g>
				<g id="XMLID_1229_" style="clip-path:url(#XMLID_3_);">
					<g id="XMLID_1311_">
						<path id="XMLID_1316_" style="fill:#FFFFFF;" d="M1835.135,689.277c2.562,0,4.639,2.077,4.639,4.639
							c0,2.562-2.077,4.639-4.639,4.639c-2.563,0-4.639-2.077-4.639-4.639C1830.496,691.353,1832.573,689.277,1835.135,689.277z"/>
						<path id="XMLID_1315_" style="fill:#FFFFFF;" d="M1835.135,644.384c2.562,0,4.639,2.077,4.639,4.639s-2.077,4.639-4.639,4.639
							c-2.563,0-4.639-2.077-4.639-4.639S1832.573,644.384,1835.135,644.384z"/>
						<path id="XMLID_1314_" style="fill:#FFFFFF;" d="M1835.135,599.491c2.562,0,4.639,2.077,4.639,4.639s-2.077,4.639-4.639,4.639
							c-2.563,0-4.639-2.077-4.639-4.639S1832.573,599.491,1835.135,599.491z"/>
						<path id="XMLID_1313_" style="fill:#FFFFFF;" d="M1835.135,554.598c2.562,0,4.639,2.077,4.639,4.639s-2.077,4.639-4.639,4.639
							c-2.563,0-4.639-2.077-4.639-4.639S1832.573,554.598,1835.135,554.598z"/>
						<path id="XMLID_1312_" style="fill:#FFFFFF;" d="M1835.135,509.706c2.562,0,4.639,2.077,4.639,4.639
							c0,2.563-2.077,4.639-4.639,4.639c-2.563,0-4.639-2.077-4.639-4.639C1830.496,511.783,1832.573,509.706,1835.135,509.706z"/>
					</g>
					<g id="XMLID_1305_">
						<circle id="XMLID_1310_" style="fill:#FFFFFF;" cx="1869.248" cy="693.916" r="4.639"/>
						<path id="XMLID_1309_" style="fill:#FFFFFF;" d="M1869.248,644.384c2.562,0,4.639,2.077,4.639,4.639s-2.077,4.639-4.639,4.639
							c-2.563,0-4.639-2.077-4.639-4.639S1866.685,644.384,1869.248,644.384z"/>
						<circle id="XMLID_1308_" style="fill:#FFFFFF;" cx="1869.248" cy="604.131" r="4.639"/>
						<path id="XMLID_1307_" style="fill:#FFFFFF;" d="M1869.248,554.598c2.562,0,4.639,2.077,4.639,4.639s-2.077,4.639-4.639,4.639
							c-2.563,0-4.639-2.077-4.639-4.639S1866.685,554.598,1869.248,554.598z"/>
						<circle id="XMLID_1306_" style="fill:#FFFFFF;" cx="1869.248" cy="514.345" r="4.639"/>
					</g>
					<g id="XMLID_1299_">
						<circle id="XMLID_1304_" style="fill:#FFFFFF;" cx="1903.361" cy="693.916" r="4.639"/>
						<path id="XMLID_1303_" style="fill:#FFFFFF;" d="M1903.361,644.384c2.562,0,4.639,2.077,4.639,4.639s-2.077,4.639-4.639,4.639
							s-4.639-2.077-4.639-4.639S1900.799,644.384,1903.361,644.384z"/>
						<circle id="XMLID_1302_" style="fill:#FFFFFF;" cx="1903.361" cy="604.131" r="4.639"/>
						<path id="XMLID_1301_" style="fill:#FFFFFF;" d="M1903.361,554.598c2.562,0,4.639,2.077,4.639,4.639s-2.077,4.639-4.639,4.639
							s-4.639-2.077-4.639-4.639S1900.799,554.598,1903.361,554.598z"/>
						<circle id="XMLID_1300_" style="fill:#FFFFFF;" cx="1903.361" cy="514.345" r="4.639"/>
					</g>
					<g id="XMLID_1293_">
						<circle id="XMLID_1298_" style="fill:#FFFFFF;" cx="1937.474" cy="693.916" r="4.639"/>
						<path id="XMLID_1297_" style="fill:#FFFFFF;" d="M1937.474,644.384c2.562,0,4.639,2.077,4.639,4.639s-2.077,4.639-4.639,4.639
							s-4.639-2.077-4.639-4.639S1934.912,644.384,1937.474,644.384z"/>
						<circle id="XMLID_1296_" style="fill:#FFFFFF;" cx="1937.474" cy="604.131" r="4.639"/>
						<path id="XMLID_1295_" style="fill:#FFFFFF;" d="M1937.474,554.598c2.562,0,4.639,2.077,4.639,4.639s-2.077,4.639-4.639,4.639
							s-4.639-2.077-4.639-4.639S1934.912,554.598,1937.474,554.598z"/>
						<circle id="XMLID_1294_" style="fill:#FFFFFF;" cx="1937.474" cy="514.345" r="4.639"/>
					</g>
					<g id="XMLID_1287_">
						<circle id="XMLID_1292_" style="fill:#FFFFFF;" cx="1971.587" cy="693.916" r="4.639"/>
						<path id="XMLID_1291_" style="fill:#FFFFFF;" d="M1971.587,644.384c2.562,0,4.639,2.077,4.639,4.639s-2.077,4.639-4.639,4.639
							s-4.639-2.077-4.639-4.639S1969.025,644.384,1971.587,644.384z"/>
						<circle id="XMLID_1290_" style="fill:#FFFFFF;" cx="1971.587" cy="604.131" r="4.639"/>
						<path id="XMLID_1289_" style="fill:#FFFFFF;" d="M1971.587,554.598c2.562,0,4.639,2.077,4.639,4.639s-2.077,4.639-4.639,4.639
							s-4.639-2.077-4.639-4.639S1969.025,554.598,1971.587,554.598z"/>
						<circle id="XMLID_1288_" style="fill:#FFFFFF;" cx="1971.587" cy="514.345" r="4.639"/>
					</g>
					<g id="XMLID_1281_">
						<circle id="XMLID_1286_" style="fill:#FFFFFF;" cx="2005.7" cy="693.916" r="4.639"/>
						<path id="XMLID_1285_" style="fill:#FFFFFF;" d="M2005.7,644.384c2.562,0,4.639,2.077,4.639,4.639s-2.077,4.639-4.639,4.639
							s-4.639-2.077-4.639-4.639S2003.138,644.384,2005.7,644.384z"/>
						<circle id="XMLID_1284_" style="fill:#FFFFFF;" cx="2005.7" cy="604.131" r="4.639"/>
						<path id="XMLID_1283_" style="fill:#FFFFFF;" d="M2005.7,554.598c2.562,0,4.639,2.077,4.639,4.639s-2.077,4.639-4.639,4.639
							s-4.639-2.077-4.639-4.639S2003.138,554.598,2005.7,554.598z"/>
						<circle id="XMLID_1282_" style="fill:#FFFFFF;" cx="2005.7" cy="514.345" r="4.639"/>
					</g>
				</g>
				<g id="XMLID_1073_" style="clip-path:url(#XMLID_3_);">
					<g id="XMLID_1104_">
						<circle id="XMLID_1109_" style="fill:#008BE0;" cx="187.457" cy="110.027" r="4.639"/>
						<path id="XMLID_1108_" style="fill:#008BE0;" d="M187.457,60.495c2.562,0,4.639,2.077,4.639,4.639
							c0,2.562-2.077,4.639-4.639,4.639c-2.562,0-4.639-2.077-4.639-4.639C182.817,62.572,184.894,60.495,187.457,60.495z"/>
						<circle id="XMLID_1107_" style="fill:#008BE0;" cx="187.457" cy="20.242" r="4.639"/>
						<circle id="XMLID_1106_" style="fill:#008BE0;" cx="187.457" cy="-24.651" r="4.639"/>
						<path id="XMLID_1105_" style="fill:#008BE0;" d="M187.457-74.183c2.562,0,4.639,2.077,4.639,4.639
							c0,2.563-2.077,4.639-4.639,4.639c-2.562,0-4.639-2.077-4.639-4.639C182.817-72.106,184.894-74.183,187.457-74.183z"/>
					</g>
					<g id="XMLID_1098_">
						<circle id="XMLID_1103_" style="fill:#008BE0;" cx="221.569" cy="110.027" r="4.639"/>
						<path id="XMLID_1102_" style="fill:#008BE0;" d="M221.569,60.495c2.562,0,4.639,2.077,4.639,4.639
							c0,2.562-2.077,4.639-4.639,4.639s-4.639-2.077-4.639-4.639C216.93,62.572,219.007,60.495,221.569,60.495z"/>
						<circle id="XMLID_1101_" style="fill:#008BE0;" cx="221.569" cy="20.242" r="4.639"/>
						<circle id="XMLID_1100_" style="fill:#008BE0;" cx="221.569" cy="-24.651" r="4.639"/>
						<path id="XMLID_1099_" style="fill:#008BE0;" d="M221.569-74.183c2.562,0,4.639,2.077,4.639,4.639
							c0,2.563-2.077,4.639-4.639,4.639s-4.639-2.077-4.639-4.639C216.93-72.106,219.007-74.183,221.569-74.183z"/>
					</g>
					<g id="XMLID_1092_">
						<circle id="XMLID_1097_" style="fill:#008BE0;" cx="255.682" cy="110.027" r="4.639"/>
						<path id="XMLID_1096_" style="fill:#008BE0;" d="M255.682,60.495c2.562,0,4.639,2.077,4.639,4.639
							c0,2.562-2.077,4.639-4.639,4.639c-2.562,0-4.639-2.077-4.639-4.639C251.043,62.572,253.12,60.495,255.682,60.495z"/>
						<circle id="XMLID_1095_" style="fill:#008BE0;" cx="255.682" cy="20.242" r="4.639"/>
						<circle id="XMLID_1094_" style="fill:#008BE0;" cx="255.682" cy="-24.651" r="4.639"/>
						<path id="XMLID_1093_" style="fill:#008BE0;" d="M255.682-74.183c2.562,0,4.639,2.077,4.639,4.639
							c0,2.563-2.077,4.639-4.639,4.639c-2.562,0-4.639-2.077-4.639-4.639C251.043-72.106,253.12-74.183,255.682-74.183z"/>
					</g>
					<g id="XMLID_1086_">
						<circle id="XMLID_1091_" style="fill:#008BE0;" cx="289.795" cy="110.027" r="4.639"/>
						<path id="XMLID_1090_" style="fill:#008BE0;" d="M289.795,60.495c2.562,0,4.639,2.077,4.639,4.639
							c0,2.562-2.077,4.639-4.639,4.639s-4.639-2.077-4.639-4.639C285.156,62.572,287.233,60.495,289.795,60.495z"/>
						<circle id="XMLID_1089_" style="fill:#008BE0;" cx="289.795" cy="20.242" r="4.639"/>
						<circle id="XMLID_1088_" style="fill:#008BE0;" cx="289.795" cy="-24.651" r="4.639"/>
						<path id="XMLID_1087_" style="fill:#008BE0;" d="M289.795-74.183c2.562,0,4.639,2.077,4.639,4.639
							c0,2.563-2.077,4.639-4.639,4.639s-4.639-2.077-4.639-4.639C285.156-72.106,287.233-74.183,289.795-74.183z"/>
					</g>
					<g id="XMLID_1080_">
						<circle id="XMLID_1085_" style="fill:#008BE0;" cx="323.908" cy="110.027" r="4.639"/>
						<path id="XMLID_1084_" style="fill:#008BE0;" d="M323.908,60.495c2.563,0,4.639,2.077,4.639,4.639
							c0,2.562-2.077,4.639-4.639,4.639c-2.562,0-4.639-2.077-4.639-4.639C319.269,62.572,321.346,60.495,323.908,60.495z"/>
						<circle id="XMLID_1083_" style="fill:#008BE0;" cx="323.908" cy="20.242" r="4.639"/>
						<circle id="XMLID_1082_" style="fill:#008BE0;" cx="323.908" cy="-24.651" r="4.639"/>
						<path id="XMLID_1081_" style="fill:#008BE0;" d="M323.908-74.183c2.563,0,4.639,2.077,4.639,4.639
							c0,2.563-2.077,4.639-4.639,4.639c-2.562,0-4.639-2.077-4.639-4.639C319.269-72.106,321.346-74.183,323.908-74.183z"/>
					</g>
					<g id="XMLID_1074_">
						<path id="XMLID_1079_" style="fill:#008BE0;" d="M358.021,105.388c2.563,0,4.639,2.077,4.639,4.639
							c0,2.562-2.077,4.639-4.639,4.639c-2.562,0-4.639-2.077-4.639-4.639C353.382,107.465,355.459,105.388,358.021,105.388z"/>
						<path id="XMLID_1078_" style="fill:#008BE0;" d="M358.021,60.495c2.563,0,4.639,2.077,4.639,4.639
							c0,2.562-2.077,4.639-4.639,4.639c-2.562,0-4.639-2.077-4.639-4.639C353.382,62.572,355.459,60.495,358.021,60.495z"/>
						<path id="XMLID_1077_" style="fill:#008BE0;" d="M358.021,15.602c2.563,0,4.639,2.077,4.639,4.639s-2.077,4.639-4.639,4.639
							c-2.562,0-4.639-2.077-4.639-4.639S355.459,15.602,358.021,15.602z"/>
						<path id="XMLID_1076_" style="fill:#008BE0;" d="M358.021-29.291c2.563,0,4.639,2.077,4.639,4.639
							c0,2.563-2.077,4.639-4.639,4.639c-2.562,0-4.639-2.077-4.639-4.639C353.382-27.213,355.459-29.291,358.021-29.291z"/>
						<path id="XMLID_1075_" style="fill:#008BE0;" d="M358.021-74.183c2.563,0,4.639,2.077,4.639,4.639
							c0,2.563-2.077,4.639-4.639,4.639c-2.562,0-4.639-2.077-4.639-4.639C353.382-72.106,355.459-74.183,358.021-74.183z"/>
					</g>
				</g>
				<g id="XMLID_1064_" style="clip-path:url(#XMLID_3_);">
					<polygon id="XMLID_1072_" style="fill:none;stroke:#FFFFFF;stroke-width:7.5287;stroke-miterlimit:10;" points="
						1221.096,-82.886 1319.702,-18.659 1313.384,98.849 1208.459,152.132 1109.853,87.905 1116.171,-29.603 					"/>
					
						<line id="XMLID_1071_" style="fill:none;stroke:#FFFFFF;stroke-width:7.5287;stroke-miterlimit:10;" x1="1214.778" y1="34.623" x2="1109.853" y2="87.905"/>
					
						<line id="XMLID_1070_" style="fill:none;stroke:#FFFFFF;stroke-width:7.5287;stroke-miterlimit:10;" x1="1215.808" y1="9.242" x2="1110.883" y2="62.524"/>
					
						<line id="XMLID_1069_" style="fill:none;stroke:#FFFFFF;stroke-width:7.5287;stroke-miterlimit:10;" x1="1216.838" y1="-16.138" x2="1111.913" y2="37.144"/>
					
						<line id="XMLID_1068_" style="fill:none;stroke:#FFFFFF;stroke-width:7.5287;stroke-miterlimit:10;" x1="1218.924" y1="-38.971" x2="1113.999" y2="14.311"/>
					
						<line id="XMLID_1067_" style="fill:none;stroke:#FFFFFF;stroke-width:7.5287;stroke-miterlimit:10;" x1="1220.455" y1="-60.58" x2="1115.53" y2="-7.297"/>
					
						<line id="XMLID_1066_" style="fill:none;stroke:#FFFFFF;stroke-width:7.5287;stroke-miterlimit:10;" x1="1221.096" y1="-82.886" x2="1214.778" y2="34.623"/>
					
						<line id="XMLID_1065_" style="fill:none;stroke:#FFFFFF;stroke-width:7.5287;stroke-miterlimit:10;" x1="1313.384" y1="98.849" x2="1214.778" y2="34.623"/>
				</g>
				<g id="XMLID_1054_" style="clip-path:url(#XMLID_3_);">
					<polygon id="XMLID_1063_" style="fill:none;stroke:#FFFFFF;stroke-width:7.5287;stroke-miterlimit:10;" points="
						527.431,904.098 626.037,968.324 619.719,1085.833 514.794,1139.115 416.188,1074.889 422.506,957.38 					"/>
					
						<line id="XMLID_1062_" style="fill:none;stroke:#FFFFFF;stroke-width:7.5287;stroke-miterlimit:10;" x1="521.113" y1="1021.606" x2="416.188" y2="1074.889"/>
					
						<line id="XMLID_1061_" style="fill:none;stroke:#FFFFFF;stroke-width:7.5287;stroke-miterlimit:10;" x1="527.431" y1="904.098" x2="521.113" y2="1021.606"/>
					
						<line id="XMLID_1060_" style="fill:none;stroke:#FFFFFF;stroke-width:7.5287;stroke-miterlimit:10;" x1="619.719" y1="1085.833" x2="521.113" y2="1021.606"/>
					
						<line id="XMLID_1059_" style="fill:none;stroke:#FFFFFF;stroke-width:7.5287;stroke-miterlimit:10;" x1="621.438" y1="1065.894" x2="522.831" y2="1001.667"/>
					
						<line id="XMLID_1058_" style="fill:none;stroke:#FFFFFF;stroke-width:7.5287;stroke-miterlimit:10;" x1="623.156" y1="1045.955" x2="524.55" y2="981.729"/>
					
						<line id="XMLID_1057_" style="fill:none;stroke:#FFFFFF;stroke-width:7.5287;stroke-miterlimit:10;" x1="624.875" y1="1026.016" x2="526.268" y2="961.79"/>
					
						<line id="XMLID_1056_" style="fill:none;stroke:#FFFFFF;stroke-width:7.5287;stroke-miterlimit:10;" x1="625.225" y1="1005.777" x2="526.618" y2="941.551"/>
					
						<line id="XMLID_1055_" style="fill:none;stroke:#FFFFFF;stroke-width:7.5287;stroke-miterlimit:10;" x1="626.587" y1="986.479" x2="527.98" y2="922.253"/>
				</g>
				
					<path id="XMLID_1053_" style="clip-path:url(#XMLID_3_);fill:none;stroke:#FCBD0B;stroke-width:25.7143;stroke-miterlimit:10;" d="
					M1554.645,1015.425c28.734-25.808,72.891-23.44,98.665,5.256c25.809,28.734,23.44,72.891-5.294,98.7"/>
				
					<path id="XMLID_1052_" style="clip-path:url(#XMLID_3_);fill:none;stroke:#FFFFFF;stroke-width:12.6249;stroke-miterlimit:10;" d="
					M1633.448,99.326c12.671,14.108,11.508,35.787-2.581,48.442c-14.108,12.671-35.787,11.508-48.458-2.599"/>
				<g id="XMLID_1031_" style="clip-path:url(#XMLID_3_);">
					<circle id="XMLID_1035_" style="fill:#FFFFFF;" cx="1357.161" cy="1115.643" r="13.423"/>
					<circle id="XMLID_1034_" style="fill:#FFFFFF;" cx="1357.161" cy="1044.358" r="13.423"/>
					<circle id="XMLID_1033_" style="fill:#FFFFFF;" cx="1323.946" cy="1080.152" r="13.423"/>
					<circle id="XMLID_1032_" style="fill:#FFFFFF;" cx="1389.087" cy="1080.152" r="13.423"/>
				</g>
				<g id="XMLID_1026_" style="clip-path:url(#XMLID_3_);">
					<circle id="XMLID_1030_" style="fill:#FFFFFF;" cx="1082.99" cy="213.943" r="9.066"/>
					<circle id="XMLID_1029_" style="fill:#FFFFFF;" cx="1048.947" cy="179.899" r="9.066"/>
					<circle id="XMLID_1028_" style="fill:#FFFFFF;" cx="1050.178" cy="212.857" r="9.066"/>
					<circle id="XMLID_1027_" style="fill:#FFFFFF;" cx="1081.288" cy="181.746" r="9.066"/>
				</g>
				<g id="XMLID_1023_" style="clip-path:url(#XMLID_3_);">
					<path id="XMLID_1025_" style="fill:#EC1841;" d="M528.295,39.413L528.295,39.413c3.389,3.389,3.389,8.884,0,12.273
						l-45.989,45.989c-3.389,3.389-8.884,3.389-12.273,0l0,0c-3.389-3.389-3.389-8.884,0-12.274l45.989-45.989
						C519.411,36.024,524.906,36.024,528.295,39.413z"/>
					<path id="XMLID_1024_" style="fill:#EC1841;" d="M528.295,97.675L528.295,97.675c-3.389,3.389-8.884,3.389-12.274,0
						l-45.989-45.989c-3.389-3.389-3.389-8.884,0-12.273l0,0c3.389-3.389,8.884-3.389,12.273,0l45.989,45.989
						C531.684,88.791,531.684,94.286,528.295,97.675z"/>
				</g>
				<g id="XMLID_1020_" style="clip-path:url(#XMLID_3_);">
					<path id="XMLID_1022_" style="fill:#FCBD0B;" d="M29.018,833.172L29.018,833.172c3.389,3.389,3.389,8.884,0,12.274
						l-45.989,45.989c-3.389,3.389-8.884,3.389-12.273,0l0,0c-3.389-3.389-3.389-8.884,0-12.273l45.989-45.989
						C20.133,829.783,25.628,829.783,29.018,833.172z"/>
					<path id="XMLID_1021_" style="fill:#FCBD0B;" d="M29.018,891.435L29.018,891.435c-3.389,3.389-8.884,3.389-12.274,0
						l-45.989-45.989c-3.389-3.389-3.389-8.885,0-12.274l0,0c3.389-3.389,8.884-3.389,12.273,0l45.989,45.989
						C32.406,882.55,32.406,888.046,29.018,891.435z"/>
				</g>
				<g id="XMLID_1017_" style="clip-path:url(#XMLID_3_);">
					<path id="XMLID_1019_" style="fill:#EC1841;" d="M1822.347,975.296L1822.347,975.296c3.188,3.188,3.188,8.357,0,11.545
						l-43.26,43.26c-3.188,3.188-8.357,3.188-11.545,0l0,0c-3.188-3.188-3.188-8.357,0-11.545l43.26-43.26
						C1813.991,972.108,1819.159,972.108,1822.347,975.296z"/>
					<path id="XMLID_1018_" style="fill:#EC1841;" d="M1822.348,1030.101L1822.348,1030.101c-3.188,3.188-8.357,3.188-11.545,0
						l-43.26-43.26c-3.188-3.188-3.188-8.357,0-11.545l0,0c3.188-3.188,8.357-3.188,11.545,0l43.26,43.26
						C1825.536,1021.744,1825.536,1026.912,1822.348,1030.101z"/>
				</g>
				<g id="XMLID_1013_" style="clip-path:url(#XMLID_3_);">
					
						<path id="XMLID_1016_" style="fill:none;stroke:#FCBD0B;stroke-width:20.3819;stroke-linecap:round;stroke-linejoin:round;stroke-miterlimit:10;" d="
						M154.11,1234.879c0-34.031,40.764-34.031,40.764-68.063c0-34.043-40.764-34.043-40.764-68.086
						c0-34.033,40.764-34.033,40.764-68.065c0-34.056-40.764-34.056-40.764-68.111c0-34.056,40.764-34.056,40.764-68.112"/>
					
						<path id="XMLID_1015_" style="fill:none;stroke:#FCBD0B;stroke-width:20.3819;stroke-linecap:round;stroke-linejoin:round;stroke-miterlimit:10;" d="
						M210.493,1234.879c0-34.031,40.764-34.031,40.764-68.063c0-34.043-40.764-34.043-40.764-68.086
						c0-34.033,40.764-34.033,40.764-68.065c0-34.056-40.764-34.056-40.764-68.111c0-34.056,40.764-34.056,40.764-68.112"/>
					
						<path id="XMLID_1014_" style="fill:none;stroke:#FCBD0B;stroke-width:20.3819;stroke-linecap:round;stroke-linejoin:round;stroke-miterlimit:10;" d="
						M266.876,1234.879c0-34.031,40.764-34.031,40.764-68.063c0-34.043-40.764-34.043-40.764-68.086
						c0-34.033,40.764-34.033,40.764-68.065c0-34.056-40.764-34.056-40.764-68.111c0-34.056,40.764-34.056,40.764-68.112"/>
				</g>
				<g id="XMLID_1011_" style="clip-path:url(#XMLID_3_);">
					
						<path id="XMLID_1012_" style="fill:none;stroke:#FCBD0B;stroke-width:12.1655;stroke-linecap:round;stroke-linejoin:round;stroke-miterlimit:10;" d="
						M1728.537,101.787c0-20.312,24.331-20.312,24.331-40.625c0-20.32-24.331-20.32-24.331-40.639
						c0-20.313,24.331-20.313,24.331-40.626c0-20.327-24.331-20.327-24.331-40.654c0-20.327,24.331-20.327,24.331-40.654"/>
				</g>
				<g id="XMLID_991_" style="clip-path:url(#XMLID_3_);">
					<path id="XMLID_1010_" style="fill:#19367F;" d="M1861.332,271.132l38.084,38.084c-7.416-4.875-14.455-10.584-20.978-17.106
						C1871.916,285.587,1866.207,278.548,1861.332,271.132z"/>
					<path id="XMLID_1009_" style="fill:#19367F;" d="M1844.217,233.208l93.125,93.124c-3.555-0.973-7.069-2.085-10.544-3.356
						l-79.225-79.225C1846.302,240.276,1845.19,236.762,1844.217,233.208z"/>
					<path id="XMLID_1008_" style="fill:#19367F;" d="M1839.938,208.119l122.491,122.491c-2.681-0.198-5.351-0.466-8.012-0.844
						l-113.636-113.636C1840.404,213.471,1840.136,210.8,1839.938,208.119z"/>
					<path id="XMLID_1007_" style="fill:#19367F;" d="M1840.027,187.38l143.141,143.142c-2.253,0.188-4.527,0.318-6.801,0.387
						L1839.64,194.18C1839.709,191.907,1839.839,189.633,1840.027,187.38z"/>
					<path id="XMLID_1006_" style="fill:#19367F;" d="M1842.767,169.311l158.47,158.47c-1.976,0.447-3.971,0.854-5.977,1.191
						l-153.684-153.684C1841.913,173.282,1842.321,171.287,1842.767,169.311z"/>
					<path id="XMLID_1005_" style="fill:#19367F;" d="M1847.453,153.188l169.907,169.907c-1.768,0.655-3.555,1.251-5.361,1.807
						l-166.353-166.353C1846.202,156.742,1846.798,154.955,1847.453,153.188z"/>
					<path id="XMLID_1004_" style="fill:#19367F;" d="M1853.718,138.624l178.207,178.207c-1.598,0.824-3.226,1.598-4.865,2.323
						l-175.665-175.665C1852.12,141.85,1852.894,140.222,1853.718,138.624z"/>
					<path id="XMLID_1003_" style="fill:#19367F;" d="M1861.332,125.429l183.786,183.786c-1.449,0.953-2.929,1.876-4.408,2.76
						l-182.139-182.139C1859.456,128.358,1860.38,126.879,1861.332,125.429z"/>
					<path id="XMLID_1002_" style="fill:#19367F;" d="M1870.218,113.486l186.844,186.844c-1.31,1.112-2.641,2.164-3.991,3.197
						l-186.05-186.05C1868.054,116.127,1869.106,114.796,1870.218,113.486z"/>
					<path id="XMLID_1001_" style="fill:#19367F;" d="M1880.246,102.704l187.598,187.599c-0.586,0.605-1.171,1.211-1.777,1.817
						c-0.606,0.606-1.211,1.191-1.817,1.777l-187.599-187.598c0.586-0.606,1.171-1.211,1.777-1.817S1879.64,103.29,1880.246,102.704
						z"/>
					<path id="XMLID_1000_" style="fill:#19367F;" d="M1891.424,93.074l186.05,186.05c-1.033,1.35-2.085,2.681-3.187,3.981
						L1887.443,96.261C1888.744,95.159,1890.074,94.107,1891.424,93.074z"/>
					<path id="XMLID_999_" style="fill:#19367F;" d="M1903.794,84.616l182.138,182.138c-0.893,1.49-1.817,2.968-2.77,4.418
						L1899.377,87.385C1900.826,86.432,1902.306,85.509,1903.794,84.616z"/>
					<path id="XMLID_998_" style="fill:#19367F;" d="M1917.436,77.447l175.665,175.665c-0.725,1.638-1.499,3.246-2.313,4.855
						L1912.58,79.761C1914.189,78.947,1915.797,78.172,1917.436,77.447z"/>
					<path id="XMLID_997_" style="fill:#19367F;" d="M1932.496,71.7l166.353,166.353c-0.556,1.807-1.152,3.594-1.807,5.361
						L1927.135,73.506C1928.902,72.851,1930.69,72.255,1932.496,71.7z"/>
					<path id="XMLID_996_" style="fill:#19367F;" d="M1949.255,67.629l153.665,153.665c-0.347,2.016-0.734,4.011-1.191,5.996
						l-158.47-158.47C1945.244,68.363,1947.24,67.976,1949.255,67.629z"/>
					<path id="XMLID_995_" style="fill:#19367F;" d="M1968.128,65.693l136.728,136.728c-0.059,2.264-0.188,4.537-0.387,6.781
						L1961.347,66.08C1963.59,65.881,1965.864,65.753,1968.128,65.693z"/>
					<path id="XMLID_994_" style="fill:#19367F;" d="M1990.098,66.835l113.616,113.615c0.367,2.671,0.645,5.351,0.844,8.032
						L1982.066,65.991C1984.747,66.19,1987.427,66.467,1990.098,66.835z"/>
					<path id="XMLID_993_" style="fill:#19367F;" d="M2017.698,73.625l79.225,79.225c1.261,3.465,2.383,6.969,3.346,10.513
						l-93.084-93.084C2010.728,71.243,2014.233,72.364,2017.698,73.625z"/>
					<path id="XMLID_992_" style="fill:#19367F;" d="M2066.067,104.481c6.522,6.523,12.231,13.561,17.105,20.978l-38.083-38.083
						C2052.506,92.25,2059.544,97.959,2066.067,104.481z"/>
				</g>
				
					<rect id="XMLID_947_" x="419.994" y="-420.006" transform="matrix(6.123234e-17 -1 1 6.123234e-17 419.9942 1499.9941)" style="clip-path:url(#XMLID_3_);fill:none;" width="1080" height="1920.012"/>
			</g>
			<g id="XMLID_452_">
				<defs>
					
						<rect id="XMLID_448_" x="419.994" y="-420.006" transform="matrix(6.123234e-17 -1 1 6.123234e-17 419.9942 1499.9941)" width="1080" height="1920.012"/>
				</defs>
				<clipPath id="XMLID_4_">
					<use xlink:href="#XMLID_448_"  style="overflow:visible;"/>
				</clipPath>
				<g id="XMLID_1236_" style="clip-path:url(#XMLID_4_);">
					<path id="XMLID_1238_" style="fill:#008BE0;" d="M1506.054,35.839L1506.054,35.839c3.389,3.389,3.389,8.884,0,12.274
						l-45.989,45.989c-3.389,3.389-8.884,3.389-12.273,0l0,0c-3.39-3.389-3.39-8.884,0-12.273l45.989-45.989
						C1497.17,32.45,1502.665,32.45,1506.054,35.839z"/>
					<path id="XMLID_1237_" style="fill:#008BE0;" d="M1506.054,94.101L1506.054,94.101c-3.389,3.389-8.884,3.389-12.273,0
						l-45.989-45.989c-3.39-3.39-3.39-8.884,0-12.274l0,0c3.389-3.389,8.884-3.389,12.273,0l45.989,45.989
						C1509.444,85.217,1509.444,90.712,1506.054,94.101z"/>
				</g>
				<g id="XMLID_1233_" style="clip-path:url(#XMLID_4_);">
					<path id="XMLID_1235_" style="fill:#EC1841;" d="M1468.522,905.651L1468.522,905.651c3.672,3.673,3.672,9.626,0,13.299
						l-49.831,49.831c-3.672,3.672-9.626,3.672-13.299,0l0,0c-3.672-3.672-3.672-9.626,0-13.299l49.831-49.831
						C1458.896,901.979,1464.85,901.979,1468.522,905.651z"/>
					<path id="XMLID_1234_" style="fill:#EC1841;" d="M1468.522,968.781L1468.522,968.781c-3.672,3.672-9.626,3.672-13.299,0
						l-49.831-49.831c-3.672-3.672-3.672-9.626,0-13.299l0,0c3.672-3.672,9.626-3.672,13.299,0l49.831,49.831
						C1472.194,959.155,1472.194,965.109,1468.522,968.781z"/>
				</g>
			</g>
		</g>
	</g>
</g>
</svg>
